<svg width="1713" height="1713" viewBox="0 0 1713 1713" fill="none" xmlns="http://www.w3.org/2000/svg">
<rect width="1713" height="1713" fill="#010D1B"/>
<g opacity="0.07" filter="url(#filter0_f_1582_4492)">
<circle cx="857" cy="857" r="538" fill="white"/>
</g>
<g filter="url(#filter1_dddddd_1582_4492)">
<path d="M785.311 553.023C828.217 511.589 896.588 512.782 938.022 555.689L1160.52 786.088C1201.95 828.994 1200.76 897.366 1157.85 938.8L928.586 1160.2C885.68 1201.63 817.308 1200.44 775.874 1157.53L553.38 927.134C511.946 884.228 513.139 815.856 556.045 774.422L785.311 553.023ZM856.999 676C837.216 676 818.176 679.177 800.357 685.043C799.427 685.349 798.499 685.662 797.575 685.983C794.958 686.893 792.369 687.86 789.809 688.885C789 689.208 788.195 689.537 787.393 689.871C778.027 693.776 769.061 698.444 760.57 703.8C759.821 704.273 759.075 704.751 758.333 705.234C708.768 737.524 675.999 793.434 675.999 857C675.999 956.964 757.036 1038 856.999 1038V1038L857 1038C863.332 1038 869.587 1037.67 875.751 1037.04C877.098 1036.9 878.44 1036.75 879.778 1036.58C894.975 1034.67 909.585 1030.88 923.368 1025.45C924.053 1025.18 924.736 1024.9 925.417 1024.62C927.081 1023.94 928.732 1023.23 930.371 1022.51C931.106 1022.18 931.838 1021.85 932.567 1021.51C935.217 1020.3 937.832 1019.01 940.411 1017.67C941.37 1017.17 942.326 1016.67 943.275 1016.15C947.539 1013.84 951.697 1011.35 955.745 1008.71C956.161 1008.44 956.576 1008.17 956.989 1007.89C957.639 1007.46 958.285 1007.03 958.929 1006.59C959.637 1006.1 960.341 1005.62 961.042 1005.12C963.068 1003.7 965.066 1002.23 967.029 1000.73C967.605 1000.29 968.177 999.843 968.747 999.396C1010.92 966.257 1038 914.791 1038 857C1038 781.246 991.462 716.362 925.417 689.377C924.736 689.099 924.053 688.825 923.368 688.555C902.818 680.451 880.429 676 857 676H856.999Z" fill="white"/>
</g>
<defs>
<filter id="filter0_f_1582_4492" x="20.8" y="20.8" width="1672.4" height="1672.4" filterUnits="userSpaceOnUse" color-interpolation-filters="sRGB">
<feFlood flood-opacity="0" result="BackgroundImageFix"/>
<feBlend mode="normal" in="SourceGraphic" in2="BackgroundImageFix" result="shape"/>
<feGaussianBlur stdDeviation="149.1" result="effect1_foregroundBlur_1582_4492"/>
</filter>
<filter id="filter1_dddddd_1582_4492" x="388.44" y="388.084" width="937.016" height="937.055" filterUnits="userSpaceOnUse" color-interpolation-filters="sRGB">
<feFlood flood-opacity="0" result="BackgroundImageFix"/>
<feColorMatrix in="SourceAlpha" type="matrix" values="0 0 0 0 0 0 0 0 0 0 0 0 0 0 0 0 0 0 127 0" result="hardAlpha"/>
<feOffset/>
<feGaussianBlur stdDeviation="1.60272"/>
<feColorMatrix type="matrix" values="0 0 0 0 1 0 0 0 0 1 0 0 0 0 1 0 0 0 1 0"/>
<feBlend mode="normal" in2="BackgroundImageFix" result="effect1_dropShadow_1582_4492"/>
<feColorMatrix in="SourceAlpha" type="matrix" values="0 0 0 0 0 0 0 0 0 0 0 0 0 0 0 0 0 0 127 0" result="hardAlpha"/>
<feOffset/>
<feGaussianBlur stdDeviation="3.20543"/>
<feColorMatrix type="matrix" values="0 0 0 0 1 0 0 0 0 1 0 0 0 0 1 0 0 0 1 0"/>
<feBlend mode="normal" in2="effect1_dropShadow_1582_4492" result="effect2_dropShadow_1582_4492"/>
<feColorMatrix in="SourceAlpha" type="matrix" values="0 0 0 0 0 0 0 0 0 0 0 0 0 0 0 0 0 0 127 0" result="hardAlpha"/>
<feOffset/>
<feGaussianBlur stdDeviation="11.219"/>
<feColorMatrix type="matrix" values="0 0 0 0 1 0 0 0 0 1 0 0 0 0 1 0 0 0 1 0"/>
<feBlend mode="normal" in2="effect2_dropShadow_1582_4492" result="effect3_dropShadow_1582_4492"/>
<feColorMatrix in="SourceAlpha" type="matrix" values="0 0 0 0 0 0 0 0 0 0 0 0 0 0 0 0 0 0 127 0" result="hardAlpha"/>
<feOffset/>
<feGaussianBlur stdDeviation="22.438"/>
<feColorMatrix type="matrix" values="0 0 0 0 1 0 0 0 0 1 0 0 0 0 1 0 0 0 1 0"/>
<feBlend mode="normal" in2="effect3_dropShadow_1582_4492" result="effect4_dropShadow_1582_4492"/>
<feColorMatrix in="SourceAlpha" type="matrix" values="0 0 0 0 0 0 0 0 0 0 0 0 0 0 0 0 0 0 127 0" result="hardAlpha"/>
<feOffset/>
<feGaussianBlur stdDeviation="38.4652"/>
<feColorMatrix type="matrix" values="0 0 0 0 1 0 0 0 0 1 0 0 0 0 1 0 0 0 1 0"/>
<feBlend mode="normal" in2="effect4_dropShadow_1582_4492" result="effect5_dropShadow_1582_4492"/>
<feColorMatrix in="SourceAlpha" type="matrix" values="0 0 0 0 0 0 0 0 0 0 0 0 0 0 0 0 0 0 127 0" result="hardAlpha"/>
<feOffset/>
<feGaussianBlur stdDeviation="67.314"/>
<feColorMatrix type="matrix" values="0 0 0 0 1 0 0 0 0 1 0 0 0 0 1 0 0 0 1 0"/>
<feBlend mode="normal" in2="effect5_dropShadow_1582_4492" result="effect6_dropShadow_1582_4492"/>
<feBlend mode="normal" in="SourceGraphic" in2="effect6_dropShadow_1582_4492" result="shape"/>
</filter>
</defs>
</svg>
